<svg width="100" height="101" viewBox="0 0 100 101" fill="none" xmlns="http://www.w3.org/2000/svg">
<g clip-path="url(#clip0_101_188)">
<path d="M50 100.5C77.6142 100.5 100 78.1142 100 50.5C100 22.8858 77.6142 0.5 50 0.5C22.3858 0.5 0 22.8858 0 50.5C0 78.1142 22.3858 100.5 50 100.5Z" fill="white"/>
<path d="M33.585 45.28L60.605 23.01C61.94 21.91 63.785 23.41 62.92 24.895L56.38 46.505C55.945 47.245 56.205 48.175 56.955 48.575L64.27 52.31C65.215 52.815 65.325 54.105 64.485 54.8L36.56 77.99C35.215 79.105 33.36 77.575 34.25 76.09L43.73 54.51C44.15 53.815 43.955 52.935 43.29 52.495L33.675 47.7C32.835 47.145 32.79 45.935 33.585 45.28Z" fill="#00BF63"/>
</g>
<defs>
<clipPath id="clip0_101_188">
<rect width="100" height="100" fill="white" transform="translate(0 0.5)"/>
</clipPath>
</defs>
</svg>
