<svg width="100" height="101" viewBox="0 0 100 101" fill="none" xmlns="http://www.w3.org/2000/svg">
<g clip-path="url(#clip0_101_163)">
<path d="M50 100.5C77.6142 100.5 100 78.1142 100 50.5C100 22.8858 77.6142 0.5 50 0.5C22.3858 0.5 0 22.8858 0 50.5C0 78.1142 22.3858 100.5 50 100.5Z" fill="white"/>
<path d="M40.4451 68.3749C33.5551 63.1399 25.4651 56.9899 25.4651 46.3349C25.4651 34.5699 38.9601 26.2249 50.0001 37.5349L54.9051 42.3699C55.6251 43.0799 56.7901 43.0799 57.5051 42.3699C58.2251 41.6599 58.2251 40.5099 57.5051 39.8049L52.7651 35.1299C63.1701 27.6199 74.5301 35.5349 74.5301 46.3349C74.5301 57.1349 66.4401 63.1399 59.5501 68.3749C58.8351 68.9199 58.1301 69.4549 57.4501 69.9799C54.9051 71.9599 52.4501 73.8249 49.9951 73.8249C47.5401 73.8249 45.0901 71.9599 42.5401 69.9799C41.8601 69.4499 41.1551 68.9149 40.4401 68.3749H40.4451Z" fill="#00BF63"/>
</g>
<defs>
<clipPath id="clip0_101_163">
<rect width="100" height="100" fill="white" transform="translate(0 0.5)"/>
</clipPath>
</defs>
</svg>
