<svg width="100" height="100" viewBox="0 0 100 100" fill="none" xmlns="http://www.w3.org/2000/svg">
<g clip-path="url(#clip0_101_188)">
<path d="M50 100C77.6142 100 100 77.6142 100 50C100 22.3858 77.6142 0 50 0C22.3858 0 0 22.3858 0 50C0 77.6142 22.3858 100 50 100Z" fill="white"/>
<path d="M33.585 44.78L60.605 22.51C61.94 21.41 63.785 22.91 62.92 24.395L56.38 46.005C55.945 46.745 56.205 47.675 56.955 48.075L64.27 51.81C65.215 52.315 65.325 53.605 64.485 54.3L36.56 77.49C35.215 78.605 33.36 77.075 34.25 75.59L43.73 54.01C44.15 53.315 43.955 52.435 43.29 51.995L33.675 47.2C32.835 46.645 32.79 45.435 33.585 44.78Z" fill="#00BF63"/>
<g clip-path="url(#clip1_101_188)">
<path d="M70 155C125.228 155 170 110.228 170 55C170 -0.228474 125.228 -45 70 -45C14.7715 -45 -30 -0.228474 -30 55C-30 110.228 14.7715 155 70 155Z" fill="white"/>
<path d="M34.78 100.28H105.22C110.77 100.26 115.27 95.77 115.28 90.22V39.91C115.26 34.36 110.77 29.86 105.22 29.85H95.16V19.79C95.16 14.23 90.65 9.72998 85.1 9.72998H54.91C49.35 9.72998 44.85 14.24 44.85 19.79V29.85H34.79C29.24 29.87 24.74 34.36 24.73 39.91V90.22C24.75 95.77 29.24 100.27 34.79 100.28H34.78ZM54.91 22.29C54.91 20.9 56.04 19.77 57.43 19.77H82.59C83.98 19.77 85.11 20.9 85.11 22.29V29.84H54.92V22.29H54.91Z" fill="#00BF63"/>
</g>
</g>
<defs>
<clipPath id="clip0_101_188">
<rect width="100" height="100" fill="white"/>
</clipPath>
<clipPath id="clip1_101_188">
<rect width="200" height="200" fill="white" transform="translate(-30 -45)"/>
</clipPath>
</defs>
</svg>
