<svg width="100" height="101" viewBox="0 0 100 101" fill="none" xmlns="http://www.w3.org/2000/svg">
<g clip-path="url(#clip0_101_182)">
<path d="M50 100.5C77.6142 100.5 100 78.1142 100 50.5C100 22.8858 77.6142 0.5 50 0.5C22.3858 0.5 0 22.8858 0 50.5C0 78.1142 22.3858 100.5 50 100.5Z" fill="white"/>
<path d="M63.81 21.42C59.925 21.03 59.535 26.47 50.21 30.355C40.715 34.31 31.295 39.51 31.15 59.245C31.13 61.385 31 65.075 30.98 66.64C30.95 68.88 31.015 71.285 29.99 72.52C29.54 73.065 28.9 73.65 28.18 74.23C27.19 75.025 27.105 76.505 28.005 77.4L28.895 78.29C29.64 79.03 30.81 79.115 31.66 78.5C34.035 76.77 34.85 76.595 35.475 76.605C37.24 76.645 39.035 76.66 40.835 76.52C52.24 75.61 63.81 70.075 69.635 59.5C80.125 40.46 67.69 21.81 63.805 21.42H63.81ZM62.825 33.88C62.12 36.245 59.76 39.77 52.375 48.48C48.565 52.975 44.175 60.72 41.035 67.615C40.085 69.705 36.895 68.175 38.035 66.085C39.515 63.88 42.93 54.25 47.875 47.79C52.82 41.325 59.4 35.775 60.42 32.58C60.895 30.395 63.76 30.735 62.825 33.88Z" fill="#00BF63"/>
</g>
<defs>
<clipPath id="clip0_101_182">
<rect width="100" height="100" fill="white" transform="translate(0 0.5)"/>
</clipPath>
</defs>
</svg>
